<svg width="1825" height="1675" xmlns="http://www.w3.org/2000/svg" xmlns:xlink="http://www.w3.org/1999/xlink"><defs><linearGradient x1="32.773%" y1="6.573%" x2="89.428%" y2="84.176%" id="a"><stop stop-color="#C3DFFF" offset="0%"/><stop stop-color="#C1D3E5" offset="100%"/></linearGradient><linearGradient x1="42.01%" y1="100%" x2="42.01%" y2="0%" id="c"><stop stop-color="#FFF" stop-opacity="0" offset="0%"/><stop stop-color="#FFF" offset="100%"/></linearGradient><path d="M1142.954 30.725l484.058 217.704a100 100 0 0156.886 70.833l140.133 673.592c8.8 42.296-10.559 85.461-47.996 107.023l-949.16 546.657c-46.707 26.9-106.33 11.944-134.809-33.817L75.382 621.832c-29.182-46.89-14.827-108.557 32.062-137.74a100 100 0 019.95-5.435L1059.048 31.59a100 100 0 0183.906-.864z" id="b"/></defs><g transform="scale(-1 1) rotate(-12 0 9617.496)" fill="none" fill-rule="evenodd" opacity=".2"><use fill="url(#a)" xlink:href="#b"/><use fill="url(#c)" xlink:href="#b"/></g></svg>